<?xml version="1.0" encoding="UTF-8" standalone="no"?><!-- Created with Inkscape (http://www.inkscape.org/) -->

<svg width="16mm" height="16mm" viewBox="0 0 16 16" version="1.1" id="svg940"
    sodipodi:docname="libhayibheli_lelingwele_fixed_typo.svg"
    inkscape:export-filename="C:\Users\Zhanka\Desktop\bitmap.png" inkscape:export-xdpi="793.75"
    inkscape:export-ydpi="793.75" inkscape:version="1.1.2 (b8e25be833, 2022-02-05)"
    xmlns:inkscape="http://www.inkscape.org/namespaces/inkscape"
    xmlns:sodipodi="http://sodipodi.sourceforge.net/DTD/sodipodi-0.dtd"
    xmlns="http://www.w3.org/2000/svg">
  <sodipodi:namedview id="namedview942" pagecolor="#ffffff" bordercolor="#666666"
      borderopacity="1.0" inkscape:pageshadow="2" inkscape:pageopacity="0.0"
      inkscape:pagecheckerboard="0" inkscape:document-units="mm" showgrid="true" units="mm"
      inkscape:zoom="9.6903646" inkscape:cx="30.23622" inkscape:cy="30.133025"
      inkscape:window-width="1600" inkscape:window-height="837" inkscape:window-x="-8"
      inkscape:window-y="-8" inkscape:window-maximized="1" inkscape:current-layer="layer1">
    <inkscape:grid type="xygrid" id="grid1001" />
  </sodipodi:namedview>
  <defs id="defs937" />
  <g inkscape:label="Layer 1" inkscape:groupmode="layer" id="layer1">
    <g id="g961" transform="matrix(0.9810963,0,0,1.2192732,0.15122945,-1.7541888)">
      <path
          d="m 1.6416597,6.9227465 q 0.1420858,0 0.2818036,-0.198822 0.1420858,-0.198822 0.2486501,-0.459098 0.1089324,-0.2602761 0.196552,-0.5494717 h 0.037889 V 7.0058902 H 0.5547033 v -0.057839 q 0.0189448,0 0.0520981,0 0.0355215,-0.00362 0.10419626,-0.014459 0.0710429,-0.014459 0.10182816,-0.061454 0.0307853,-0.046994 0.0378892,-0.1590575 L 0.8554499,6.5467935 V 4.8296934 L 0.8507149,4.6634059 Q 0.8436089,4.5477275 0.8175614,4.5043484 0.7938804,4.4573544 0.7417824,4.4465094 0.6896843,4.4356614 0.6517947,4.4356614 0.6139052,4.4320414 0.5831199,4.4284314 v -0.057836 h 1.1461594 v 0.057839 l -0.1562944,0.010848 q -0.071043,0.010848 -0.097092,0.054225 -0.026049,0.043379 -0.033154,0.1626726 l -0.00473,0.1662874 v 2.1111278 z"
          id="path27755"
          style="font-size:2.92584px;line-height:1.05;font-family:Elephant;-inkscape-font-specification:Elephant;text-align:center;text-anchor:middle;fill:#0000ff;stroke-width:0.238192"
          inkscape:export-filename="C:\Users\Zhanka\Desktop\bitmap.png"
          inkscape:export-xdpi="2619.2651" inkscape:export-ydpi="2619.2651" />
      <path
          style="font-size:2.92584px;line-height:1.05;font-family:Elephant;-inkscape-font-specification:Elephant;text-align:center;text-anchor:middle;fill:#ff0000;stroke-width:0.238192"
          d="m 2.6220524,4.6887105 q 0,-0.1409828 0.066307,-0.2385863 0.068675,-0.101219 0.1633986,-0.101219 0.097092,0 0.1633987,0.097604 0.068675,0.093989 0.068675,0.2422013 0,0.1445978 -0.068675,0.2458162 -0.066306,0.097604 -0.1633987,0.097604 -0.094724,0 -0.1633986,-0.097604 -0.066307,-0.1012178 -0.066307,-0.2458162 z"
          id="path30554" inkscape:export-filename="C:\Users\Zhanka\Desktop\bitmap.png"
          inkscape:export-xdpi="2619.2651" inkscape:export-ydpi="2619.2651" />
      <path
          style="font-size:2.92584px;line-height:1.05;font-family:Elephant;-inkscape-font-specification:Elephant;text-align:center;text-anchor:middle;stroke-width:0.238192"
          d="M 3.2377575,7.0058902 H 2.4704942 v -0.057839 l 0.056834,-0.00362 q 0.068674,-0.010848 0.082883,-0.05061 0.014209,-0.039764 0.014209,-0.1735175 l 0.00237,-0.1662874 v -0.863966 l -0.00237,-0.1482128 q -0.00473,-0.086759 -0.014209,-0.130138 -0.00947,-0.043379 -0.085251,-0.054225 l -0.063939,-0.00723 v -0.057839 h 0.6204414 v 1.2616157 l 0.00237,0.1662874 q 0,0.1301381 0.014209,0.1735174 0.014209,0.039764 0.082883,0.05061 l 0.056834,0.00362 z"
          id="path27752" inkscape:export-filename="C:\Users\Zhanka\Desktop\bitmap.png"
          inkscape:export-xdpi="2619.2651" inkscape:export-ydpi="2619.2651" />
      <path
          d="m 4.6799288,6.1419184 q 0,0.4084888 -0.1799753,0.654305 -0.1799754,0.2458162 -0.4570427,0.2458162 -0.1823434,0 -0.2841716,-0.1156784 Q 3.6569111,6.8106831 3.5906043,6.695005 h -0.014209 q -0.033154,0.05061 -0.071043,0.1445978 -0.035522,0.090374 -0.068674,0.1771322 h -0.028417 q 0.00237,-0.1445978 0.00237,-0.2711209 0.00237,-0.1301379 0.00473,-0.3108852 V 4.7682393 l -0.00237,-0.1482127 q 0,-0.097604 -0.021313,-0.1337529 -0.018945,-0.039764 -0.085252,-0.05061 l -0.089988,-0.00723 v -0.057839 h 0.6535948 v 0.8169775 l -0.00473,0.2855807 q 0.026049,-0.072299 0.082883,-0.1445978 0.059202,-0.072299 0.220233,-0.072299 0.2249692,0 0.367055,0.2458162 0.1444539,0.2422014 0.1444539,0.6398453 z m -0.4783555,0.00362 q 0,-0.05061 -0.00473,-0.1915921 -0.00473,-0.1445978 -0.00473,-0.1771323 0,-0.1915921 -0.037889,-0.3072703 -0.037889,-0.1192936 -0.123141,-0.1192936 -0.073411,0 -0.1065643,0.065069 -0.033154,0.061454 -0.042626,0.1445978 -0.00947,0.079529 -0.01184,0.2349714 -0.00237,0.1518277 -0.00237,0.3036554 v 0.2422014 q 0,0.097604 0.00711,0.2024369 0,0.191592 0.037889,0.3181151 0.040257,0.1229087 0.1207729,0.1229087 0.078148,0 0.1184049,-0.1301381 0.040257,-0.130138 0.040257,-0.3181152 0,-0.072299 0.00237,-0.1699024 0.00237,-0.1012178 0.00711,-0.2205116 z"
          id="path27749"
          style="font-size:2.92584px;line-height:1.05;font-family:Elephant;-inkscape-font-specification:Elephant;text-align:center;text-anchor:middle;stroke-width:0.238192"
          inkscape:export-filename="C:\Users\Zhanka\Desktop\bitmap.png"
          inkscape:export-xdpi="2619.2651" inkscape:export-ydpi="2619.2651" />
      <path
          d="m 5.3287855,5.5599122 q 0.044994,-0.1445978 0.1255091,-0.2241265 0.080516,-0.079529 0.2297053,-0.079529 0.1633987,0 0.2889079,0.1373679 0.1255091,0.133753 0.1255091,0.3470346 v 0.8133626 l 0.00237,0.1662875 q 0,0.1301381 0.014209,0.1735174 0.014208,0.039764 0.082883,0.05061 l 0.052098,0.00362 v 0.057839 H 5.5182331 v -0.057839 l 0.030785,-0.00362 q 0.063939,0 0.078147,-0.043379 0.014209,-0.043379 0.014209,-0.1807472 L 5.6437441,6.554023 V 5.8165734 l -0.00237,-0.1482128 q 0,-0.1518276 -0.033154,-0.2168967 -0.033154,-0.065069 -0.09946,-0.065069 -0.080516,0 -0.1160368,0.079528 -0.033154,0.079529 -0.054466,0.1626725 v 0.9254259 l 0.00237,0.1662874 q 0,0.1409829 0.01184,0.1843623 0.014209,0.039764 0.080516,0.039764 l 0.030785,0.00362 V 7.005894 H 4.729657 V 6.948055 L 4.784123,6.944435 Q 4.852798,6.933587 4.867006,6.893825 4.881215,6.854061 4.881215,6.7203076 L 4.8835864,6.554021 V 4.7682393 l -0.00237,-0.1482127 q 0,-0.097604 -0.021313,-0.1337529 -0.018945,-0.039764 -0.085252,-0.05061 l -0.089988,-0.00723 v -0.057839 h 0.6535947 v 0.856742 q 0,0.1192935 -0.00237,0.2024369 -0.00237,0.079529 -0.00711,0.130138 z"
          id="path27746"
          style="font-size:2.92584px;line-height:1.05;font-family:Elephant;-inkscape-font-specification:Elephant;text-align:center;text-anchor:middle;stroke-width:0.238192"
          inkscape:export-filename="C:\Users\Zhanka\Desktop\bitmap.png"
          inkscape:export-xdpi="2619.2651" inkscape:export-ydpi="2619.2651" />
      <path
          d="m 7.5074352,6.8251429 q 0.056834,0 0.078147,-0.1048329 0.023681,-0.1084481 0.023681,-0.2566611 h 0.033154 q 0,0.3181152 -0.075779,0.4193336 -0.073411,0.1012191 -0.1326134,0.1265231 -0.059202,0.02892 -0.1515582,0.02892 -0.1018282,0 -0.1823435,-0.079528 Q 7.0219761,6.8793666 7.0053991,6.7456144 6.9675101,6.8938272 6.8775218,6.969741 6.7899018,7.04204 6.6478164,7.04204 q -0.1515581,0 -0.246282,-0.1265231 -0.094724,-0.1265231 -0.094724,-0.3506497 0,-0.1807472 0.059202,-0.2891956 0.059202,-0.1120635 0.1207729,-0.1373681 0.061571,-0.025305 0.1894478,-0.043379 0.1278773,-0.018074 0.1870797,-0.039764 0.061571,-0.025305 0.087619,-0.05061 0.026049,-0.02892 0.026049,-0.093989 l -0.00237,-0.32896 q 0,-0.1409829 -0.023681,-0.202437 -0.023681,-0.061454 -0.09946,-0.061454 -0.047362,0 -0.080516,0.032535 -0.030785,0.032535 -0.030785,0.083143 0,0.039764 0.04973,0.1012191 0.052099,0.057838 0.052099,0.1771322 0,0.1120632 -0.066307,0.198822 -0.063939,0.086758 -0.2107607,0.086758 -0.080516,0 -0.1420858,-0.065069 -0.059202,-0.068684 -0.059202,-0.1807473 0,-0.2241265 0.1633987,-0.3578794 0.1657668,-0.133753 0.393104,-0.133753 0.1918158,0 0.3528465,0.1229086 0.1610306,0.1192936 0.1610306,0.3723393 v 0.827824 q 0,0.1156783 0.014208,0.1771323 0.01184,0.065069 0.059202,0.065069 z M 6.9769815,6.7203095 V 6.029855 l -0.00711,-0.00362 q -0.021313,0.043379 -0.080516,0.083143 -0.056834,0.036149 -0.080516,0.072299 -0.021312,0.036149 -0.035522,0.140983 -0.01184,0.101219 -0.01184,0.2096667 0,0.1626726 0.016577,0.260276 0.016577,0.097604 0.075779,0.097604 0.044994,0 0.078147,-0.054225 0.035522,-0.054225 0.044994,-0.1156784 z"
          id="path27743"
          style="font-size:2.92584px;line-height:1.05;font-family:Elephant;-inkscape-font-specification:Elephant;text-align:center;text-anchor:middle;stroke-width:0.238192"
          inkscape:export-filename="C:\Users\Zhanka\Desktop\bitmap.png"
          inkscape:export-xdpi="2619.2651" inkscape:export-ydpi="2619.2651" />
      <path
          d="M 7.7584548,5.5382226 Q 7.7300377,5.447849 7.7110929,5.4116995 7.6921482,5.3719352 7.6613629,5.3610902 l -0.092356,-0.010848 v -0.057838 h 0.7743677 v 0.057838 h -0.035523 q -0.018947,0 -0.049728,0.010848 -0.028417,0.00723 -0.028417,0.072299 0,0.02892 0.00947,0.075914 0.00947,0.043379 0.018947,0.086758 l 0.184711,0.6723808 q 0.023682,-0.086759 0.075782,-0.2819658 0.052099,-0.198822 0.082883,-0.3361899 0.030789,-0.1373679 0.030789,-0.198822 0,-0.046994 -0.011841,-0.065069 -0.00947,-0.018074 -0.056834,-0.02892 l -0.075782,-0.00723 v -0.057839 h 0.395472 v 0.057839 q -0.014204,0 -0.030789,0.00362 -0.014213,0 -0.056834,0.010848 -0.040258,0.010848 -0.068675,0.065069 Q 8.6985886,5.4840073 8.6204411,5.7840469 8.5446591,6.0840873 8.4546741,6.4202772 8.3670551,6.756467 8.2557545,7.1179615 8.1468217,7.479456 8.0497299,7.6602033 7.9550059,7.8409505 7.7939755,7.8409505 q -0.094724,0 -0.1752392,-0.097604 -0.078147,-0.097604 -0.078147,-0.2530462 0,-0.1445978 0.063939,-0.2458162 0.063939,-0.101219 0.1633988,-0.101219 0.1018281,0 0.1586624,0.090374 0.056834,0.090374 0.056834,0.2132818 0,0.1229087 -0.044994,0.198822 -0.044994,0.075914 -0.044994,0.090374 0.021313,-0.00362 0.044994,-0.00723 0.052099,-0.036149 0.09946,-0.1373679 0.04973,-0.1012191 0.08762,-0.2096669 Q 8.1633953,7.2734078 8.2060249,7.1251948 8.1539272,6.9372062 8.0757798,6.6624704 8.0000007,6.3841196 7.9052769,6.0515448 7.8129211,5.7189698 7.7584548,5.5382226 Z"
          id="path27740"
          style="font-size:2.92584px;line-height:1.05;font-family:Elephant;-inkscape-font-specification:Elephant;text-align:center;text-anchor:middle;stroke-width:0.238192"
          inkscape:export-filename="C:\Users\Zhanka\Desktop\bitmap.png"
          inkscape:export-xdpi="2619.2651" inkscape:export-ydpi="2619.2651" />
      <path
          style="font-size:2.92584px;line-height:1.05;font-family:Elephant;-inkscape-font-specification:Elephant;text-align:center;text-anchor:middle;fill:#ff0000;stroke-width:0.238192"
          d="m 8.9756572,4.6887105 q 0,-0.1409828 0.066304,-0.2385863 0.068675,-0.101219 0.1633987,-0.101219 0.097092,0 0.1633987,0.097604 0.068675,0.093989 0.068675,0.2422013 0,0.1445978 -0.068675,0.2458162 -0.066304,0.097604 -0.1633987,0.097604 -0.094724,0 -0.1633987,-0.097604 -0.066304,-0.1012178 -0.066304,-0.2458162 z"
          id="path30594" inkscape:export-filename="C:\Users\Zhanka\Desktop\bitmap.png"
          inkscape:export-xdpi="2619.2651" inkscape:export-ydpi="2619.2651" />
      <path
          style="font-size:2.92584px;line-height:1.05;font-family:Elephant;-inkscape-font-specification:Elephant;text-align:center;text-anchor:middle;stroke-width:0.238192"
          d="M 9.5913629,7.0058902 H 8.8240997 v -0.057839 l 0.056834,-0.00362 q 0.068675,-0.010848 0.082883,-0.05061 0.014204,-0.039764 0.014204,-0.1735175 l 0.00235,-0.1662874 v -0.863966 l -0.00235,-0.1482128 q -0.00478,-0.086759 -0.014204,-0.130138 -0.00947,-0.043379 -0.085251,-0.054225 l -0.06394,-0.00723 V 5.2924055 H 9.435067 v 1.2616157 l 0.00235,0.1662874 q 0,0.1301381 0.014213,0.1735174 0.014204,0.039764 0.082884,0.05061 l 0.056834,0.00362 z"
          id="path27737" inkscape:export-filename="C:\Users\Zhanka\Desktop\bitmap.png"
          inkscape:export-xdpi="2619.2651" inkscape:export-ydpi="2619.2651" />
      <path
          d="m 11.033533,6.1419184 q 0,0.4084888 -0.179975,0.654305 -0.179976,0.2458162 -0.457043,0.2458162 -0.182343,0 -0.284171,-0.1156784 Q 10.010516,6.8106829 9.9442092,6.6950048 h -0.014213 q -0.033152,0.05061 -0.071039,0.1445978 -0.035523,0.090374 -0.068675,0.1771323 h -0.028417 q 0.00235,-0.1445978 0.00235,-0.2711209 0.00235,-0.130138 0.00478,-0.3108852 V 4.7682393 l -0.00235,-0.1482127 q 0,-0.097604 -0.021311,-0.1337529 -0.018947,-0.039764 -0.085251,-0.05061 l -0.089988,-0.00723 V 4.3705947 H 10.22369 v 0.8169775 l -0.0048,0.2855807 q 0.02604,-0.072299 0.08288,-0.1445978 0.05921,-0.072299 0.220233,-0.072299 0.224969,0 0.367055,0.2458162 0.144454,0.2422014 0.144454,0.6398453 z m -0.478355,0.00362 q 0,-0.05061 -0.0048,-0.1915921 -0.0048,-0.1445978 -0.0048,-0.1771323 0,-0.1915921 -0.03789,-0.3072703 -0.03789,-0.1192936 -0.123141,-0.1192936 -0.07341,0 -0.106565,0.065069 -0.03315,0.061454 -0.04263,0.1445978 -0.0095,0.079529 -0.01184,0.2349714 -0.0023,0.1518277 -0.0023,0.3036554 v 0.2422014 q 0,0.097604 0.0071,0.2024369 0,0.191592 0.03789,0.3181151 0.04026,0.1229087 0.120773,0.1229087 0.07815,0 0.118405,-0.1301381 0.04026,-0.130138 0.04026,-0.3181152 0,-0.072299 0.0023,-0.1699024 0.0023,-0.1012178 0.0071,-0.2205116 z"
          id="path27734"
          style="font-size:2.92584px;line-height:1.05;font-family:Elephant;-inkscape-font-specification:Elephant;text-align:center;text-anchor:middle;stroke-width:0.238192"
          inkscape:export-filename="C:\Users\Zhanka\Desktop\bitmap.png"
          inkscape:export-xdpi="2619.2651" inkscape:export-ydpi="2619.2651" />
      <path
          d="m 11.682391,5.5599122 q 0.04499,-0.1445978 0.125509,-0.2241265 0.08052,-0.079529 0.229706,-0.079529 0.163398,0 0.288907,0.1373679 0.12551,0.133753 0.12551,0.3470346 v 0.8133626 l 0.0023,0.1662875 q 0,0.1301381 0.0142,0.1735174 0.01421,0.039764 0.08288,0.05061 l 0.0521,0.00362 v 0.057839 h -0.731741 v -0.057839 l 0.03079,-0.00362 q 0.06394,0 0.07815,-0.043379 0.0142,-0.043379 0.0142,-0.1807472 l 0.0023,-0.1662875 V 5.8165734 l -0.0023,-0.1482128 q 0,-0.1518276 -0.03315,-0.2168967 -0.03315,-0.065069 -0.09946,-0.065069 -0.08052,0 -0.116036,0.079528 -0.03315,0.079529 -0.05446,0.1626725 v 0.9254259 l 0.0023,0.1662874 q 0,0.1409829 0.01184,0.1843623 0.01421,0.039764 0.08052,0.039764 l 0.03079,0.00362 V 7.005894 H 11.083137 V 6.948055 l 0.05446,-0.00362 q 0.06868,-0.010848 0.08288,-0.05061 0.0142,-0.039764 0.0142,-0.1735174 l 0.0023,-0.1662874 V 4.7682393 l -0.0023,-0.1482127 q 0,-0.097604 -0.02131,-0.1337529 -0.01895,-0.039764 -0.08525,-0.05061 l -0.08999,-0.00723 v -0.057839 h 0.653595 v 0.856742 q 0,0.1192935 -0.0023,0.2024369 -0.0023,0.079529 -0.0071,0.130138 z"
          id="path27731"
          style="font-size:2.92584px;line-height:1.05;font-family:Elephant;-inkscape-font-specification:Elephant;text-align:center;text-anchor:middle;stroke-width:0.238192"
          inkscape:export-filename="C:\Users\Zhanka\Desktop\bitmap.png"
          inkscape:export-xdpi="2619.2651" inkscape:export-ydpi="2619.2651" />
      <path
          d="m 13.839727,6.4636484 q -0.0663,0.2711209 -0.213128,0.4265635 -0.146823,0.1518277 -0.345743,0.1518277 -0.279435,0 -0.45941,-0.2349714 -0.179976,-0.2385863 -0.179976,-0.65792 0,-0.390414 0.184712,-0.6398452 0.187079,-0.2530461 0.44757,-0.2530461 0.272331,0 0.416785,0.2349714 0.144454,0.2349714 0.144454,0.5747762 h -0.727005 q 0,0.1301381 0.01184,0.267506 0.01421,0.1337528 0.04973,0.2602759 0.03789,0.1265231 0.104196,0.2060519 0.06867,0.075914 0.170503,0.075914 0.144454,0 0.227337,-0.1229087 0.08525,-0.1265231 0.130246,-0.3145002 z M 13.422942,5.9937056 q -0.0023,-0.039764 -0.0048,-0.093989 0,-0.054225 0,-0.1373679 0,-0.2205117 -0.03552,-0.3325749 -0.03552,-0.1156784 -0.123141,-0.1156784 -0.07578,0 -0.106564,0.1120632 -0.02842,0.1084481 -0.04026,0.3361899 l -0.0048,0.2313564 z"
          id="path27728"
          style="font-size:2.92584px;line-height:1.05;font-family:Elephant;-inkscape-font-specification:Elephant;text-align:center;text-anchor:middle;stroke-width:0.238192"
          inkscape:export-filename="C:\Users\Zhanka\Desktop\bitmap.png"
          inkscape:export-xdpi="2619.2651" inkscape:export-ydpi="2619.2651" />
      <path
          d="m 14.647249,7.0058902 h -0.767263 v -0.057839 l 0.05683,-0.00362 q 0.06868,-0.010848 0.08288,-0.05061 0.01421,-0.039764 0.01421,-0.1735175 l 0.0023,-0.1662874 v -1.785777 l -0.0023,-0.1482127 q -0.0048,-0.086758 -0.01421,-0.1301381 -0.0095,-0.043379 -0.08525,-0.054225 l -0.08052,-0.00723 v -0.057839 h 0.637018 v 2.1834267 l 0.0023,0.1662874 q 0,0.1301381 0.0142,0.1735174 0.01421,0.039764 0.08288,0.05061 l 0.05683,0.00362 z"
          id="path27725"
          style="font-size:2.92584px;line-height:1.05;font-family:Elephant;-inkscape-font-specification:Elephant;text-align:center;text-anchor:middle;stroke-width:0.238192"
          inkscape:export-filename="C:\Users\Zhanka\Desktop\bitmap.png"
          inkscape:export-xdpi="2619.2651" inkscape:export-ydpi="2619.2651" />
      <path
          style="font-size:2.92584px;line-height:1.05;font-family:Elephant;-inkscape-font-specification:Elephant;text-align:center;text-anchor:middle;fill:#ff0000;stroke-width:0.238192"
          d="m 14.829592,4.6887105 q 0,-0.1409828 0.0663,-0.2385863 0.06867,-0.101219 0.163399,-0.101219 0.09709,0 0.163398,0.097604 0.06868,0.093989 0.06868,0.2422013 0,0.1445978 -0.06868,0.2458162 -0.0663,0.097604 -0.163398,0.097604 -0.09472,0 -0.163399,-0.097604 -0.0663,-0.1012178 -0.0663,-0.2458162 z"
          id="path30634" inkscape:export-filename="C:\Users\Zhanka\Desktop\bitmap.png"
          inkscape:export-xdpi="2619.2651" inkscape:export-ydpi="2619.2651" />
      <path
          style="font-size:2.92584px;line-height:1.05;font-family:Elephant;-inkscape-font-specification:Elephant;text-align:center;text-anchor:middle;stroke-width:0.238192"
          d="m 15.445297,7.0058902 h -0.767263 v -0.057839 l 0.05683,-0.00362 q 0.06867,-0.010848 0.08288,-0.05061 0.01421,-0.039764 0.01421,-0.1735175 l 0.0023,-0.1662874 v -0.863966 l -0.0023,-0.1482128 q -0.0048,-0.086759 -0.01421,-0.130138 -0.0095,-0.043379 -0.08525,-0.054225 l -0.06394,-0.00723 v -0.057839 h 0.620442 v 1.2616157 l 0.0023,0.1662874 q 0,0.1301381 0.01421,0.1735174 0.0142,0.039764 0.08288,0.05061 l 0.05683,0.00362 z"
          id="path27722" inkscape:export-filename="C:\Users\Zhanka\Desktop\bitmap.png"
          inkscape:export-xdpi="2619.2651" inkscape:export-ydpi="2619.2651" />
      <path
          d="m 1.7683488,10.718438 q 0.1420858,0 0.2818035,-0.198822 Q 2.1922381,10.320794 2.2988024,10.060518 2.407735,9.8002424 2.4953545,9.5110468 h 0.037889 V 10.801582 H 0.68139237 v -0.05784 q 0.0189448,0 0.0520982,0 0.0355214,-0.0036 0.10419623,-0.01446 0.0710427,-0.01446 0.10182815,-0.06145 0.0307853,-0.04699 0.03789,-0.159057 l 0.004735,-0.166288 V 8.6253865 L 0.9774049,8.4590991 Q 0.9702986,8.3434207 0.94425135,8.3000414 0.9205707,8.2530471 0.86847215,8.2422029 0.81637441,8.231355 0.77848452,8.231355 0.740595,8.2277349 0.70980968,8.2241272 v -0.05784 H 1.8559684 v 0.057839 L 1.699674,8.2349738 Q 1.628631,8.2458218 1.602582,8.2891988 1.576533,8.3325778 1.569428,8.4518713 l -0.00473,0.1662874 v 2.1111273 z"
          id="path27719"
          style="font-size:2.92584px;line-height:1.05;font-family:Elephant;-inkscape-font-specification:Elephant;text-align:center;text-anchor:middle;fill:#0000ff;stroke-width:0.238192"
          inkscape:export-filename="C:\Users\Zhanka\Desktop\bitmap.png"
          inkscape:export-xdpi="2619.2651" inkscape:export-ydpi="2619.2651" />
      <path
          d="m 3.8120169,10.25934 q -0.066307,0.271121 -0.2131287,0.426564 -0.146822,0.151827 -0.3457422,0.151827 -0.2794354,0 -0.4594107,-0.234971 Q 2.61376,10.364174 2.61376,9.9448402 q 0,-0.3904141 0.1847115,-0.6398453 0.1870796,-0.2530462 0.4475703,-0.2530462 0.2723311,0 0.416785,0.2349715 0.1444539,0.2349714 0.1444539,0.5747763 H 3.080275 q 0,0.1301379 0.01184,0.2675055 0.014209,0.133753 0.04973,0.260276 0.037889,0.126523 0.1041962,0.206052 0.068675,0.07592 0.170503,0.07592 0.1444539,0 0.2273373,-0.122909 0.085252,-0.126523 0.1302452,-0.3145 z M 3.3952318,9.7893976 q -0.00237,-0.039764 -0.00473,-0.093989 0,-0.054225 0,-0.1373679 0,-0.2205116 -0.035522,-0.3325748 -0.035522,-0.1156784 -0.123141,-0.1156784 -0.075779,0 -0.1065644,0.1120632 -0.028417,0.1084481 -0.040257,0.3361899 l -0.00473,0.2313565 z"
          id="path27716"
          style="font-size:2.92584px;line-height:1.05;font-family:Elephant;-inkscape-font-specification:Elephant;text-align:center;text-anchor:middle;stroke-width:0.238192"
          inkscape:export-filename="C:\Users\Zhanka\Desktop\bitmap.png"
          inkscape:export-xdpi="2619.2651" inkscape:export-ydpi="2619.2651" />
      <path
          d="M 4.6195396,10.801582 H 3.8522763 v -0.05784 l 0.056834,-0.0036 q 0.068674,-0.01085 0.082883,-0.05061 0.014209,-0.03976 0.014209,-0.173518 l 0.00237,-0.166287 V 8.5639313 L 4.0062026,8.4157185 Q 4.0014678,8.32896 3.9919941,8.2855805 3.982522,8.2422013 3.9067425,8.2313558 l -0.080516,-0.00723 v -0.057839 h 0.637018 v 2.1834262 l 0.00237,0.166288 q 0,0.130138 0.014209,0.173517 0.014209,0.03976 0.082883,0.05061 l 0.056834,0.0036 z"
          id="path27713"
          style="font-size:2.92584px;line-height:1.05;font-family:Elephant;-inkscape-font-specification:Elephant;text-align:center;text-anchor:middle;stroke-width:0.238192"
          inkscape:export-filename="C:\Users\Zhanka\Desktop\bitmap.png"
          inkscape:export-xdpi="2619.2651" inkscape:export-ydpi="2619.2651" />
      <path
          d="M 5.417588,10.801582 H 4.6503246 v -0.05784 l 0.056834,-0.0036 q 0.068675,-0.01085 0.082883,-0.05061 0.014209,-0.03976 0.014209,-0.173518 l 0.00237,-0.166287 V 9.4857421 L 4.8042509,9.3375294 Q 4.7995147,9.2507707 4.7900424,9.2073915 4.78057,9.1640121 4.7047909,9.1531673 l -0.063939,-0.00723 v -0.05784 h 0.6204414 v 1.2616167 l 0.00237,0.166287 q 0,0.130138 0.014209,0.173517 0.014209,0.03976 0.082883,0.05061 l 0.056834,0.0036 z M 4.8018829,8.4844025 q 0,-0.1409829 0.066307,-0.2385865 0.068675,-0.101219 0.1633986,-0.101219 0.097092,0 0.1633987,0.097604 0.068675,0.093989 0.068675,0.2422013 0,0.1445978 -0.068675,0.2458163 -0.066307,0.097604 -0.1633987,0.097604 -0.094724,0 -0.1633986,-0.097604 -0.066307,-0.1012191 -0.066307,-0.2458161 z"
          id="path27710"
          style="font-size:2.92584px;line-height:1.05;font-family:Elephant;-inkscape-font-specification:Elephant;text-align:center;text-anchor:middle;stroke-width:0.238192"
          inkscape:export-filename="C:\Users\Zhanka\Desktop\bitmap.png"
          inkscape:export-xdpi="2619.2651" inkscape:export-ydpi="2619.2651" />
      <path
          d="m 7.5583477,8.2241264 q -0.030785,0.00362 -0.068675,0.00723 -0.035522,0.00362 -0.1018282,0.02169 -0.066306,0.014459 -0.1018281,0.083143 -0.033154,0.065069 -0.040258,0.1807472 l -0.00473,0.1735174 v 2.111128 H 6.9521149 L 5.827269,8.6036956 h -0.00947 v 1.6881794 l 0.00473,0.173517 q 0.00711,0.119294 0.037889,0.177133 0.033154,0.05784 0.097092,0.07591 0.066307,0.01446 0.1113006,0.01807 0.047362,0.0036 0.063939,0.0072 v 0.05784 H 5.4507415 v -0.05784 q 0.030785,-0.0036 0.068674,-0.0072 0.037889,-0.0036 0.1326134,-0.0253 0.097092,-0.0253 0.1113006,-0.245817 l 0.00473,-0.173517 v -1.6448 l -0.00473,-0.1662875 q -0.030785,-0.075914 -0.073411,-0.1409828 -0.042626,-0.065069 -0.094724,-0.090374 -0.04973,-0.025305 -0.097092,-0.025305 h -0.071043 v -0.057839 h 0.904613 l 0.8501468,1.6628746 h 0.00947 V 8.6759945 L 7.1865577,8.5024772 Q 7.1794514,8.3867988 7.1463003,8.3289599 7.115515,8.2675061 7.0515764,8.2530456 6.9876376,8.2349711 6.9473801,8.231356 6.9094911,8.227736 6.8763371,8.224126 V 8.166288 H 7.558349 Z"
          id="path27707"
          style="font-size:2.92584px;line-height:1.05;font-family:Elephant;-inkscape-font-specification:Elephant;text-align:center;text-anchor:middle;fill:#0000ff;stroke-width:0.238192"
          inkscape:export-filename="C:\Users\Zhanka\Desktop\bitmap.png"
          inkscape:export-xdpi="2619.2651" inkscape:export-ydpi="2619.2651" />
      <path
          d="m 7.8472548,11.094393 q -0.066307,0.01446 -0.097092,0.05784 -0.028417,0.04699 -0.028417,0.133753 0,0.144598 0.1373496,0.216897 0.1397177,0.07591 0.3196927,0.07591 0.2249694,0 0.3623192,-0.07591 0.1373499,-0.07591 0.1373499,-0.242201 0,-0.101219 -0.061569,-0.133753 -0.061569,-0.03253 -0.175239,-0.03253 z m 0.4096805,-1.4279036 -0.0071,-0.263891 q 0,-0.133753 -0.023682,-0.2132817 -0.023682,-0.079529 -0.082883,-0.079529 -0.054466,0 -0.080516,0.083143 -0.023681,0.079528 -0.023681,0.2096668 l -0.00711,0.263891 0.00711,0.2638909 q 0,0.1265226 0.026049,0.2096666 0.026049,0.07953 0.080516,0.07953 0.054463,0 0.078145,-0.07953 0.026046,-0.07953 0.026046,-0.2096666 z m 0.239178,-0.4157187 q 0.026046,-0.090374 0.080516,-0.1445978 0.054463,-0.054225 0.1326134,-0.054225 0.082883,0 0.1326134,0.065069 0.049728,0.065069 0.049728,0.1771322 0,0.086758 -0.037887,0.1445978 -0.037887,0.057839 -0.09946,0.057839 -0.056834,0 -0.097092,-0.046994 -0.037887,-0.05061 -0.037887,-0.1445978 0,-0.05061 0.021311,-0.093989 0.023682,-0.046994 0.023682,-0.068684 0,-0.014459 -0.018947,-0.014459 -0.030788,0 -0.068675,0.039764 -0.037887,0.036149 -0.061569,0.1120633 0.042622,0.068684 0.066304,0.1735173 0.023682,0.1012178 0.023682,0.2132817 0,0.2747359 -0.1373498,0.4446386 -0.1373499,0.166288 -0.322061,0.166288 -0.1136689,0 -0.2226013,-0.06868 -0.04973,-0.0072 -0.094724,0.0253 -0.044994,0.03254 -0.044994,0.104833 0,0.05061 0.035522,0.07592 0.033154,0.02892 0.075779,0.02892 h 0.5044053 q 0.1941833,0 0.3102207,0.169903 0.1160366,0.169902 0.1160366,0.426563 0,0.314501 -0.1965522,0.462713 -0.1941841,0.148213 -0.4570426,0.148213 -0.2154973,0 -0.3788959,-0.07953 -0.1610307,-0.07953 -0.1610307,-0.278351 0,-0.09399 0.047362,-0.151828 0.04973,-0.05422 0.1231411,-0.07591 -0.094724,-0.08314 -0.1491907,-0.187975 -0.052098,-0.101218 -0.052098,-0.249431 0,-0.180748 0.078147,-0.307271 Q 7.7572666,10.194281 7.866199,10.168977 7.7785799,10.082208 7.7288499,9.9593 7.681488,9.8327769 7.681488,9.6701044 q 0,-0.2783508 0.1349815,-0.4482532 0.1373496,-0.1699025 0.3291657,-0.1699025 0.2154964,0 0.3504781,0.198822 z"
          id="path27704"
          style="font-size:2.92584px;line-height:1.05;font-family:Elephant;-inkscape-font-specification:Elephant;text-align:center;text-anchor:middle;fill:#000000;stroke-width:0.238192"
          inkscape:export-filename="C:\Users\Zhanka\Desktop\bitmap.png"
          inkscape:export-xdpi="2619.2651" inkscape:export-ydpi="2619.2651" />
      <path
          d="m 9.5901764,9.1097879 q -0.066304,0 -0.111301,0.079529 -0.044993,0.079528 -0.071039,0.1952069 -0.023682,0.1156784 -0.035523,0.2530462 -0.00947,0.1337529 -0.00947,0.260276 0,0.32896 0.071047,0.574777 0.07341,0.242201 0.2557547,0.242201 0.1302452,0 0.2273368,-0.122909 0.097092,-0.126523 0.1468231,-0.318115 l 0.03552,0.02892 q -0.1586622,0.535012 -0.5683427,0.535012 -0.2699633,0 -0.4594108,-0.242201 -0.1894484,-0.245816 -0.1894484,-0.6470759 0,-0.4048738 0.1847119,-0.65069 0.1870794,-0.2458164 0.4641473,-0.2458164 0.1041963,0 0.1918158,0.036149 0.08762,0.032535 0.1633987,0.093989 0.078145,0.057839 0.1468222,0.1699023 0.07105,0.1084481 0.07105,0.2566611 0,0.133753 -0.05446,0.2168967 -0.054463,0.079528 -0.1610307,0.079528 -0.092355,0 -0.1681343,-0.097604 -0.07341,-0.101219 -0.07341,-0.2277415 0,-0.097604 0.026046,-0.1879772 0.026046,-0.090374 0.026046,-0.1518277 0,-0.057838 -0.028417,-0.093989 -0.028417,-0.036149 -0.080516,-0.036149 z"
          id="path27701"
          style="font-size:2.92584px;line-height:1.05;font-family:Elephant;-inkscape-font-specification:Elephant;text-align:center;text-anchor:middle;stroke-width:0.238192"
          inkscape:export-filename="C:\Users\Zhanka\Desktop\bitmap.png"
          inkscape:export-xdpi="2619.2651" inkscape:export-ydpi="2619.2651" />
      <path
          d="m 11.070239,9.5435813 -0.04973,-0.2096669 q -0.01895,-0.072299 -0.03552,-0.1192935 -0.01658,-0.05061 -0.0521,-0.061454 l -0.0521,-0.00723 v -0.05784 h 0.724638 v 0.05784 h -0.03552 q -0.01895,0 -0.0521,0.010848 -0.03315,0.010848 -0.03315,0.086758 0,0.025305 0.0023,0.05061 0.0023,0.025305 0.02368,0.1373678 0.02368,0.1084481 0.07341,0.3253451 0.04973,0.2168967 0.08052,0.3434202 l 0.163398,-0.6506905 q 0.03079,-0.1409828 0.03079,-0.2024369 0,-0.054225 -0.01658,-0.068684 -0.01658,-0.014459 -0.04499,-0.02169 -0.02842,-0.00723 -0.04973,-0.00723 -0.01895,-0.00362 -0.03789,-0.00362 v -0.05784 h 0.395473 v 0.05784 l -0.08525,0.014459 q -0.07105,0.018075 -0.132615,0.2494313 L 11.53674,10.816044 H 11.366238 L 11.091552,9.6303399 10.786068,10.816042 h -0.168136 q -0.03552,-0.155443 -0.07341,-0.318115 -0.03789,-0.162673 -0.137349,-0.5856214 -0.09709,-0.4265635 -0.130246,-0.5530865 -0.03079,-0.1265231 -0.04499,-0.1590575 -0.0142,-0.032535 -0.04262,-0.039764 -0.02842,-0.010848 -0.05683,-0.010848 -0.02604,-0.00362 -0.04973,-0.00362 v -0.05784 h 0.745951 v 0.05784 h -0.01658 q -0.0095,0 -0.04263,0.010848 -0.03079,0.010848 -0.03079,0.086759 0,0.025305 0.0023,0.05061 0.0023,0.025305 0.02131,0.1156784 0.01895,0.086758 0.06394,0.2891956 0.04499,0.2024368 0.09472,0.4084884 z"
          id="path27698"
          style="font-size:2.92584px;line-height:1.05;font-family:Elephant;-inkscape-font-specification:Elephant;text-align:center;text-anchor:middle;stroke-width:0.238192"
          inkscape:export-filename="C:\Users\Zhanka\Desktop\bitmap.png"
          inkscape:export-xdpi="2619.2651" inkscape:export-ydpi="2619.2651" />
      <path
          d="m 13.263098,10.25934 q -0.0663,0.271121 -0.213128,0.426564 -0.146822,0.151827 -0.345743,0.151827 -0.279435,0 -0.459411,-0.234971 -0.179975,-0.238586 -0.179975,-0.6579198 0,-0.3904141 0.184712,-0.6398453 0.187079,-0.2530462 0.44757,-0.2530462 0.272331,0 0.416785,0.2349715 0.144454,0.2349714 0.144454,0.5747763 h -0.727006 q 0,0.1301379 0.01184,0.2675055 0.0142,0.133753 0.04973,0.260276 0.03789,0.126523 0.104196,0.206052 0.06867,0.07592 0.170502,0.07592 0.144454,0 0.227338,-0.122909 0.08525,-0.126523 0.130245,-0.3145 z M 12.846314,9.7893976 q -0.0023,-0.039764 -0.0048,-0.093989 0,-0.054225 0,-0.1373679 0,-0.2205116 -0.03552,-0.3325748 -0.03552,-0.1156784 -0.123141,-0.1156784 -0.07578,0 -0.106564,0.1120632 -0.02842,0.1084481 -0.04026,0.3361899 l -0.0048,0.2313565 z"
          id="path27695"
          style="font-size:2.92584px;line-height:1.05;font-family:Elephant;-inkscape-font-specification:Elephant;text-align:center;text-anchor:middle;stroke-width:0.238192"
          inkscape:export-filename="C:\Users\Zhanka\Desktop\bitmap.png"
          inkscape:export-xdpi="2619.2651" inkscape:export-ydpi="2619.2651" />
      <path
          d="m 14.070621,10.801582 h -0.767263 v -0.05784 l 0.05683,-0.0036 q 0.06868,-0.01085 0.08288,-0.05061 0.01421,-0.03976 0.01421,-0.173518 l 0.0023,-0.166287 V 8.5639313 l -0.0023,-0.1482128 q -0.0048,-0.086759 -0.01421,-0.130138 -0.0095,-0.043379 -0.08525,-0.054225 l -0.08052,-0.00723 v -0.057839 h 0.637018 v 2.1834265 l 0.0023,0.166288 q 0,0.130138 0.0142,0.173517 0.01421,0.03976 0.08288,0.05061 l 0.05683,0.0036 z"
          id="path27692"
          style="font-size:2.92584px;line-height:1.05;font-family:Elephant;-inkscape-font-specification:Elephant;text-align:center;text-anchor:middle;stroke-width:0.238192"
          inkscape:export-filename="C:\Users\Zhanka\Desktop\bitmap.png"
          inkscape:export-xdpi="2619.2651" inkscape:export-ydpi="2619.2651" />
      <path
          d="m 15.316239,10.25934 q -0.0663,0.271121 -0.213128,0.426564 -0.146822,0.151827 -0.345742,0.151827 -0.279436,0 -0.459411,-0.234971 -0.179976,-0.238586 -0.179976,-0.6579198 0,-0.3904141 0.184712,-0.6398453 0.18708,-0.2530462 0.447571,-0.2530462 0.27233,0 0.416784,0.2349715 0.144455,0.2349714 0.144455,0.5747763 h -0.727006 q 0,0.1301379 0.01184,0.2675055 0.0142,0.133753 0.04973,0.260276 0.03789,0.126523 0.104196,0.206052 0.06868,0.07592 0.170503,0.07592 0.144453,0 0.227337,-0.122909 0.08525,-0.126523 0.130246,-0.3145 z M 14.899455,9.7893976 q -0.0023,-0.039764 -0.0048,-0.093989 0,-0.054225 0,-0.1373679 0,-0.2205116 -0.03552,-0.3325748 -0.03552,-0.1156784 -0.12314,-0.1156784 -0.07578,0 -0.106565,0.1120632 -0.02842,0.1084481 -0.04026,0.3361899 l -0.0048,0.2313565 z"
          id="path27689"
          style="font-size:2.92584px;line-height:1.05;font-family:Elephant;-inkscape-font-specification:Elephant;text-align:center;text-anchor:middle;fill:#0000ff;stroke-width:0.238192"
          inkscape:export-filename="C:\Users\Zhanka\Desktop\bitmap.png"
          inkscape:export-xdpi="2619.2651" inkscape:export-ydpi="2619.2651" />
    </g>
  </g>
</svg>
