<?xml version="1.0" encoding="UTF-8" standalone="no"?><!-- Created with Inkscape (http://www.inkscape.org/) -->

<svg width="16pt" height="16pt" viewBox="0 0 5.6444446 5.6444444" version="1.1" id="svg5"
    inkscape:version="1.1 (c68e22c387, 2021-05-23)" sodipodi:docname="libhayibheli_lelingwele.svg"
    xmlns:inkscape="http://www.inkscape.org/namespaces/inkscape"
    xmlns:sodipodi="http://sodipodi.sourceforge.net/DTD/sodipodi-0.dtd"
    xmlns="http://www.w3.org/2000/svg">
  <sodipodi:namedview id="namedview7" pagecolor="#ffffff" bordercolor="#666666" borderopacity="1.0"
      inkscape:pageshadow="2" inkscape:pageopacity="0.0" inkscape:pagecheckerboard="0"
      inkscape:document-units="mm" showgrid="true" units="pt" inkscape:zoom="27.515625"
      inkscape:cx="10.666667" inkscape:cy="10.666667" inkscape:window-width="1600"
      inkscape:window-height="837" inkscape:window-x="-8" inkscape:window-y="-8"
      inkscape:window-maximized="1" inkscape:current-layer="layer1">
    <inkscape:grid type="xygrid" id="grid824" />
  </sodipodi:namedview>
  <defs id="defs2" />
  <g inkscape:label="Layer 1" inkscape:groupmode="layer" id="layer1">
    <g id="g24665" inkscape:export-filename="D:\Android Studio\Bible\libhayibheli_lelingwele.png"
        inkscape:export-xdpi="96" inkscape:export-ydpi="96">
      <path
          style="color:#000000;-inkscape-font-specification:Elephant;fill:#0000ff;stroke-width:0.154007;-inkscape-stroke:none"
          d="m 0.48077208,2.3034877 q 0.052323,0 0.10377404,-0.09574 0.052323,-0.095739 0.0915653,-0.2210712 0.0401144,-0.125332 0.0723802,-0.2645896 h 0.0139527 V 2.3435243 H 0.08050076 v -0.027851 q 0.0069767,0 0.01918509,0 0.0130808,-0.00174 0.03837025,-0.00697 0.0261615,-0.00697 0.0374982,-0.029592 0.0113367,-0.022629 0.0139528,-0.076592 l 0.001744,-0.080073 V 1.2956107 L 0.1895071,1.2155377 Q 0.1868911,1.1598347 0.1772984,1.1389457 0.1685784,1.1163167 0.1493928,1.1110947 0.1302077,1.1058747 0.1162548,1.1058747 0.102302,1.1041347 0.09096535,1.1023947 v -0.027852 h 0.42207258 v 0.027852 l -0.0575553,0.00522 q -0.0261615,0.00522 -0.0357541,0.026111 -0.009593,0.020889 -0.0122087,0.078333 l -0.001744,0.080073 V 2.308712 Z"
          id="path23840" />
      <path
          style="color:#000000;-inkscape-font-specification:Elephant;fill:#ff2a2a;stroke-width:0.154007;-inkscape-stroke:none"
          d="m 0.84179965,1.2277227 q 0,-0.067888 0.0244174,-0.1148876 0.0252895,-0.04874 0.0601716,-0.04874 0.0357542,0 0.0601716,0.047 0.0252895,0.045259 0.0252895,0.1166283 0,0.069629 -0.0252895,0.1183688 -0.0244174,0.047 -0.0601716,0.047 -0.0348822,0 -0.0601716,-0.047 -0.0244174,-0.04874 -0.0244174,-0.1183695 z"
          id="path24265" />
      <path
          style="color:#000000;-inkscape-font-specification:Elephant;fill:#000000;stroke-width:0.154007;-inkscape-stroke:none"
          d="M 1.0685329,2.3435243 H 0.78598839 v -0.027851 l 0.0209294,-0.00174 q 0.0252895,-0.00523 0.0305215,-0.02437 0.005231,-0.019148 0.005231,-0.083554 l 8.7059e-4,-0.080073 V 1.7099022 l -8.7059e-4,-0.07137 q -0.001741,-0.041778 -0.005231,-0.062667 -0.003489,-0.020889 -0.0313942,-0.026111 l -0.0235454,-0.00348 V 1.5184282 H 1.010977 v 0.6075113 l 8.706e-4,0.080073 q 0,0.062667 0.00523,0.083554 0.00523,0.019148 0.030521,0.02437 l 0.020929,0.00174 z"
          id="path23842" />
      <path
          style="color:#000000;-inkscape-font-specification:Elephant;fill:#000000;stroke-width:0.154007;-inkscape-stroke:none"
          d="m 1.5996103,1.9274922 q 0,0.1967013 -0.066276,0.3150704 -0.066276,0.1183693 -0.1683058,0.1183693 -0.067148,0 -0.1046461,-0.055703 -0.037498,-0.055703 -0.061916,-0.1114054 h -0.00523 q -0.012209,0.02437 -0.026161,0.069629 -0.013081,0.043518 -0.025289,0.085295 H 1.131319 q 8.706e-4,-0.069629 8.706e-4,-0.1305536 8.706e-4,-0.062667 0.00174,-0.1497019 V 1.2660185 l -8.706e-4,-0.07137 q 0,-0.046999 -0.00785,-0.064407 -0.00698,-0.019148 -0.031394,-0.02437 L 1.060677,1.1023915 V 1.0745393 H 1.3013689 V 1.467942 l -0.00174,0.1375176 q 0.00959,-0.034814 0.030521,-0.069629 0.021802,-0.034814 0.081101,-0.034814 0.082845,0 0.1351678,0.1183693 0.053195,0.1166287 0.053195,0.3081075 z M 1.423456,1.92923 q 0,-0.02437 -0.00174,-0.092259 -0.00174,-0.069629 -0.00174,-0.085296 0,-0.092259 -0.013953,-0.1479612 -0.013953,-0.057443 -0.045347,-0.057443 -0.027033,0 -0.039242,0.031333 -0.012209,0.029592 -0.015697,0.069629 -0.00349,0.038296 -0.00436,0.1131474 -8.706e-4,0.07311 -8.706e-4,0.1462206 v 0.1166287 q 0,0.047 0.00262,0.09748 0,0.092259 0.013953,0.1531833 0.014825,0.059184 0.044475,0.059184 0.028777,0 0.043602,-0.062667 0.014825,-0.062667 0.014825,-0.1531835 0,-0.034814 8.706e-4,-0.081813 8.706e-4,-0.04874 0.00262,-0.1061836 z"
          id="path23844" />
      <path
          style="color:#000000;-inkscape-font-specification:Elephant;fill:#000000;stroke-width:0.154007;-inkscape-stroke:none"
          d="m 1.8385514,1.6472362 q 0.016569,-0.069629 0.046219,-0.1079242 0.029649,-0.038296 0.084589,-0.038296 0.060172,0 0.1063902,0.066148 0.046219,0.064407 0.046219,0.1671092 v 0.3916621 l 8.705e-4,0.080073 q 0,0.062667 0.00523,0.083554 0.00523,0.019148 0.030521,0.02437 l 0.019185,0.00174 v 0.027851 H 1.9083155 v -0.027851 l 0.011337,-0.00174 q 0.023545,0 0.028777,-0.020889 0.00523,-0.020889 0.00523,-0.087035 l 8.706e-4,-0.080073 v -0.355108 l -8.706e-4,-0.07137 q 0,-0.07311 -0.012209,-0.1044429 -0.012209,-0.031333 -0.036626,-0.031333 -0.02965,0 -0.04273,0.038296 -0.012209,0.038296 -0.020057,0.078332 v 0.4456243 l 8.705e-4,0.080073 q 0,0.067888 0.00436,0.088777 0.00523,0.019148 0.029649,0.019148 l 0.011337,0.00174 v 0.027851 H 1.6179226 v -0.027851 l 0.020057,-0.00174 q 0.025289,-0.00523 0.030522,-0.02437 0.00523,-0.019148 0.00523,-0.083554 l 8.706e-4,-0.080073 V 1.2660185 l -8.706e-4,-0.07137 q 0,-0.046999 -0.00785,-0.064407 -0.00698,-0.019148 -0.031394,-0.02437 L 1.601351,1.1023909 V 1.0745393 H 1.8420397 V 1.48709 q 0,0.057443 -8.706e-4,0.09748 -8.706e-4,0.038296 -0.00262,0.062665 z"
          id="path23846" />
      <path
          style="color:#000000;-inkscape-font-specification:Elephant;fill:#000000;stroke-width:0.154007;-inkscape-stroke:none"
          d="m 2.6408367,2.2564882 q 0.020929,0 0.028777,-0.050481 0.00872,-0.052221 0.00872,-0.1235912 h 0.012209 q 0,0.1531835 -0.027905,0.2019235 -0.027033,0.04874 -0.048835,0.060925 -0.021801,0.013931 -0.055811,0.013931 -0.037498,0 -0.067148,-0.038296 -0.028777,-0.038296 -0.034882,-0.1027023 -0.013953,0.07137 -0.047091,0.1079242 -0.032266,0.034814 -0.084589,0.034814 -0.055811,0 -0.090693,-0.060925 -0.034882,-0.060925 -0.034882,-0.1688499 0,-0.087037 0.021802,-0.1392582 0.021801,-0.053962 0.044474,-0.066148 0.022673,-0.012179 0.069764,-0.020889 0.047091,-0.0087 0.068892,-0.019148 0.022673,-0.012179 0.032266,-0.02437 0.00959,-0.013931 0.00959,-0.045259 L 2.4446279,1.657682 q 0,-0.067889 -0.00872,-0.09748 -0.00872,-0.029592 -0.036626,-0.029592 -0.017441,0 -0.02965,0.015667 -0.011337,0.015667 -0.011337,0.040037 0,0.019148 0.018313,0.04874 0.019185,0.027851 0.019185,0.085296 0,0.053962 -0.024417,0.09574 -0.023545,0.041778 -0.077613,0.041778 -0.029649,0 -0.052323,-0.031333 -0.021801,-0.033073 -0.021801,-0.087035 0,-0.1079242 0.060172,-0.1723313 0.061044,-0.064407 0.1447604,-0.064407 0.070636,0 0.1299356,0.059184 0.0593,0.057443 0.0593,0.1792941 v 0.3986249 q 0,0.055703 0.00523,0.085296 0.00436,0.031333 0.021801,0.031333 z M 2.4454973,2.2060074 V 1.8735298 l -0.00262,-0.00174 q -0.00785,0.020889 -0.02965,0.040037 -0.020929,0.017408 -0.029649,0.034814 -0.00785,0.017408 -0.013081,0.067888 -0.00436,0.04874 -0.00436,0.1009617 0,0.078332 0.0061,0.1253318 0.0061,0.047 0.027905,0.047 0.016569,0 0.028777,-0.026111 0.013081,-0.026111 0.016569,-0.055703 z"
          id="path23848" />
      <path
          style="color:#000000;-inkscape-font-specification:Elephant;fill:#000000;stroke-width:0.154007;-inkscape-stroke:none"
          d="m 2.7332731,1.6367919 q -0.010465,-0.043518 -0.017441,-0.060925 -0.00698,-0.019148 -0.018313,-0.02437 l -0.03401,-0.00523 V 1.5184183 H 2.94867 v 0.027851 H 2.935589 q -0.00698,0 -0.018313,0.00523 -0.010465,0.00348 -0.010465,0.034814 0,0.013931 0.00349,0.036556 0.00349,0.020889 0.00698,0.041778 l 0.06802,0.3237741 q 0.00872,-0.041778 0.027905,-0.1357769 0.019185,-0.09574 0.030521,-0.161887 0.011337,-0.066148 0.011337,-0.09574 0,-0.02263 -0.00436,-0.031333 -0.00349,-0.0087 -0.020929,-0.013931 L 3.00187,1.5462735 v -0.027851 h 0.1456325 v 0.027851 q -0.00523,0 -0.011337,0.00174 -0.00523,0 -0.020929,0.00523 -0.014825,0.00523 -0.025289,0.031333 -0.010465,0.026111 -0.039242,0.1705906 -0.027905,0.1444798 -0.061044,0.3063668 -0.032266,0.1618869 -0.073252,0.3359589 -0.040114,0.1740721 -0.075868,0.2611081 -0.034882,0.087035 -0.094182,0.087035 -0.034882,0 -0.064532,-0.047 -0.028777,-0.047 -0.028777,-0.1218506 0,-0.069629 0.023545,-0.1183693 0.023545,-0.04874 0.060172,-0.04874 0.037498,0 0.058428,0.043518 0.020929,0.043518 0.020929,0.1027024 0,0.059184 -0.016569,0.09574 -0.016569,0.036556 -0.016569,0.043518 0.00785,-0.00174 0.016569,-0.00348 0.019185,-0.017408 0.036626,-0.066148 0.018314,-0.04874 0.032266,-0.1009617 0.013953,-0.052221 0.02965,-0.1235912 Q 2.8789056,2.3104506 2.8501279,2.1781559 2.8222223,2.0441204 2.7873403,1.8839742 2.7533303,1.7238279 2.7332731,1.6367919 Z"
          id="path23850" />
      <path
          style="color:#000000;-inkscape-font-specification:Elephant;fill:#ff2a2a;stroke-width:0.154007;-inkscape-stroke:none"
          d="m 3.1815057,1.2277227 q 0,-0.067888 0.024417,-0.1148876 0.025289,-0.04874 0.060172,-0.04874 0.035754,0 0.060172,0.047 0.025289,0.045259 0.025289,0.1166283 0,0.069629 -0.025289,0.1183688 -0.024417,0.047 -0.060172,0.047 -0.034882,0 -0.060172,-0.047 -0.024417,-0.04874 -0.024417,-0.1183695 z"
          id="path24207" />
      <path
          style="color:#000000;-inkscape-font-specification:Elephant;fill:#000000;stroke-width:0.154007;-inkscape-stroke:none"
          d="M 3.4082389,2.3435243 H 3.1256945 v -0.027851 l 0.020929,-0.00174 q 0.02529,-0.00523 0.030522,-0.02437 0.00523,-0.019148 0.00523,-0.083554 L 3.183246,2.1259363 V 1.7099022 l -8.705e-4,-0.07137 q -0.00174,-0.041778 -0.00523,-0.062667 -0.00349,-0.020889 -0.031394,-0.026111 l -0.023545,-0.00348 v -0.027851 h 0.2284772 v 0.6075113 l 8.706e-4,0.080073 q 0,0.062667 0.00523,0.083554 0.00523,0.019148 0.030521,0.02437 l 0.020929,0.00174 z"
          id="path23852" />
      <path
          style="color:#000000;-inkscape-font-specification:Elephant;fill:#000000;stroke-width:0.154007;-inkscape-stroke:none"
          d="m 3.9393162,1.9274922 q 0,0.1967013 -0.066276,0.3150704 -0.066276,0.1183693 -0.1683058,0.1183693 -0.067148,0 -0.1046461,-0.055703 -0.037498,-0.055703 -0.061916,-0.1114054 h -0.00523 q -0.012209,0.02437 -0.026161,0.069629 -0.013081,0.043518 -0.025289,0.085295 h -0.010465 q 8.706e-4,-0.069629 8.706e-4,-0.1305536 8.705e-4,-0.062667 0.00174,-0.1497019 V 1.2660185 l -8.706e-4,-0.07137 q 0,-0.046999 -0.00785,-0.064407 -0.00698,-0.019148 -0.031394,-0.02437 l -0.033138,-0.00348 V 1.0745393 H 3.6410748 V 1.467942 l -0.00174,0.1375176 q 0.00959,-0.034814 0.030521,-0.069629 0.021801,-0.034814 0.081101,-0.034814 0.082845,0 0.1351679,0.1183693 0.053195,0.1166287 0.053195,0.3081075 z M 3.7631619,1.92923 q 0,-0.02437 -0.00174,-0.092259 -0.00174,-0.069629 -0.00174,-0.085296 0,-0.092259 -0.013953,-0.1479612 -0.013953,-0.057443 -0.045347,-0.057443 -0.027033,0 -0.039242,0.031333 -0.012209,0.029592 -0.015697,0.069629 -0.00349,0.038296 -0.00436,0.1131474 -8.705e-4,0.07311 -8.705e-4,0.1462206 v 0.1166287 q 0,0.047 0.00262,0.09748 0,0.092259 0.013953,0.1531833 0.014825,0.059184 0.044475,0.059184 0.028777,0 0.043602,-0.062667 0.014825,-0.062667 0.014825,-0.1531835 0,-0.034814 8.706e-4,-0.081813 8.706e-4,-0.04874 0.00262,-0.1061836 z"
          id="path23854" />
      <path
          style="color:#000000;-inkscape-font-specification:Elephant;fill:#000000;stroke-width:0.154007;-inkscape-stroke:none"
          d="m 4.1782577,1.6472362 q 0.016569,-0.069629 0.046219,-0.1079242 0.029649,-0.038296 0.084589,-0.038296 0.060172,0 0.1063902,0.066148 0.046219,0.064407 0.046219,0.1671092 v 0.3916621 l 8.706e-4,0.080073 q 0,0.062667 0.00523,0.083554 0.00523,0.019148 0.030521,0.02437 l 0.019185,0.00174 v 0.027851 H 4.2480217 v -0.027851 l 0.011337,-0.00174 q 0.023545,0 0.028777,-0.020889 0.00523,-0.020889 0.00523,-0.087035 l 8.706e-4,-0.080073 v -0.355108 l -8.706e-4,-0.07137 q 0,-0.07311 -0.012209,-0.1044429 -0.012209,-0.031333 -0.036626,-0.031333 -0.02965,0 -0.04273,0.038296 -0.012209,0.038296 -0.020057,0.078332 v 0.4456243 l 8.706e-4,0.080073 q 0,0.067888 0.00436,0.088777 0.00523,0.019148 0.029649,0.019148 l 0.011337,0.00174 v 0.027851 H 3.9576288 v -0.027851 l 0.020057,-0.00174 q 0.025289,-0.00523 0.030521,-0.02437 0.00523,-0.019148 0.00523,-0.083554 l 8.706e-4,-0.080073 V 1.2660185 l -8.706e-4,-0.07137 q 0,-0.046999 -0.00785,-0.064407 -0.00698,-0.019148 -0.031394,-0.02437 l -0.033138,-0.00348 V 1.0745393 H 4.1817459 V 1.48709 q 0,0.057443 -8.706e-4,0.09748 -8.706e-4,0.038296 -0.00262,0.062665 z"
          id="path23856" />
      <path
          style="color:#000000;-inkscape-font-specification:Elephant;fill:#000000;stroke-width:0.154007;-inkscape-stroke:none"
          d="m 4.9726943,2.0824162 q -0.024417,0.1305537 -0.078485,0.2054051 -0.054067,0.07311 -0.1273194,0.07311 -0.102902,0 -0.1691778,-0.1131474 -0.066276,-0.1148881 -0.066276,-0.3168112 0,-0.1879977 0.06802,-0.3081074 0.068892,-0.1218505 0.1648176,-0.1218505 0.1002859,0 0.1534809,0.113146 0.053195,0.1131475 0.053195,0.2767745 h -0.267719 q 0,0.062667 0.00436,0.128813 0.00523,0.064407 0.018313,0.1253318 0.013953,0.060925 0.03837,0.099221 0.02529,0.036556 0.062788,0.036556 0.053195,0 0.083717,-0.059184 0.031394,-0.060925 0.047963,-0.1514427 z M 4.8192133,1.8561226 q -8.705e-4,-0.019148 -0.00174,-0.045259 0,-0.026111 0,-0.066148 0,-0.1061836 -0.013081,-0.1601464 -0.013081,-0.055703 -0.045347,-0.055703 -0.027905,0 -0.039242,0.053962 -0.010465,0.052222 -0.014825,0.1618871 l -0.00174,0.1114054 z"
          id="path23858" />
      <path
          style="color:#000000;-inkscape-font-specification:Elephant;fill:#000000;stroke-width:0.154007;-inkscape-stroke:none"
          d="M 5.2700626,2.3435243 H 4.9875181 v -0.027851 l 0.020929,-0.00174 q 0.02529,-0.00523 0.030521,-0.02437 0.00523,-0.019148 0.00523,-0.083554 l 8.706e-4,-0.080073 V 1.2660185 l -8.706e-4,-0.07137 q -0.00174,-0.041777 -0.00523,-0.062666 -0.00349,-0.020889 -0.031394,-0.026111 l -0.029649,-0.00348 v -0.027852 h 0.2345818 v 1.051395 l 8.706e-4,0.080073 q 0,0.062667 0.00523,0.083554 0.00523,0.019148 0.030521,0.02437 l 0.020929,0.00174 z"
          id="path23860" />
      <path
          style="color:#000000;-inkscape-font-specification:Elephant;fill:#ff2a2a;stroke-width:0.154007;-inkscape-stroke:none"
          d="m 5.3372103,1.2277227 q 0,-0.067888 0.024418,-0.1148876 0.025289,-0.04874 0.060172,-0.04874 0.035754,0 0.060172,0.047 0.02529,0.045259 0.02529,0.1166283 0,0.069629 -0.02529,0.1183688 -0.024417,0.047 -0.060172,0.047 -0.034882,0 -0.060172,-0.047 -0.024418,-0.04874 -0.024418,-0.1183695 z"
          id="path24167" />
      <path
          style="color:#000000;-inkscape-font-specification:Elephant;fill:#000000;stroke-width:0.154007;-inkscape-stroke:none"
          d="M 5.5639435,2.3435243 H 5.2813991 v -0.027851 l 0.020929,-0.00174 q 0.02529,-0.00523 0.030521,-0.02437 0.00523,-0.019148 0.00523,-0.083554 l 8.705e-4,-0.080073 V 1.7099022 l -8.705e-4,-0.07137 q -0.00174,-0.041778 -0.00523,-0.062667 -0.00349,-0.020889 -0.031394,-0.026111 l -0.023545,-0.00348 v -0.027851 h 0.2284773 v 0.6075113 l 8.706e-4,0.080073 q 0,0.062667 0.00523,0.083554 0.00523,0.019148 0.030521,0.02437 l 0.020929,0.00174 z"
          id="path23862" />
      <path
          style="color:#000000;-inkscape-font-specification:Elephant;fill:#000000;stroke-width:0.154007;-inkscape-stroke:none"
          d="m 0.75982559,4.1312438 q 0.0523229,0 0.10377402,-0.09574 0.0523229,-0.09574 0.0915653,-0.2210715 0.0401142,-0.1253318 0.0723802,-0.2645894 h 0.013953 V 4.1712804 H 0.35955425 V 4.143429 q 0.006977,0 0.0191851,0 0.0130808,-0.00174 0.0383702,-0.00697 0.0261615,-0.00697 0.0374982,-0.029592 0.0113367,-0.022629 0.0139528,-0.076592 l 0.001744,-0.080073 V 3.1233668 l -0.001744,-0.080073 q -0.002616,-0.055703 -0.0122087,-0.076592 -0.008721,-0.022629 -0.0279056,-0.027851 -0.0191851,-0.00523 -0.033138,-0.00523 -0.0139528,-0.00174 -0.0252894,-0.00348 v -0.027853 h 0.42207263 v 0.027851 l -0.0575556,0.00523 q -0.0261615,0.00523 -0.035754,0.026111 -0.009593,0.020889 -0.0122087,0.078332 l -0.001744,0.080073 v 1.0165805 z"
          id="path23864" />
      <path
          style="color:#000000;-inkscape-font-specification:Elephant;fill:#000000;stroke-width:0.154007;-inkscape-stroke:none"
          d="m 1.5124039,3.9101723 q -0.024417,0.1305537 -0.078485,0.2054051 -0.054067,0.07311 -0.1273194,0.07311 -0.1029021,0 -0.1691779,-0.113146 -0.066276,-0.1148881 -0.066276,-0.3168111 0,-0.1879978 0.06802,-0.3081074 0.068892,-0.1218506 0.1648176,-0.1218506 0.1002859,0 0.153481,0.113146 0.053195,0.1131475 0.053195,0.2767745 H 1.2429403 q 0,0.062667 0.00436,0.1288131 0.00523,0.064407 0.018313,0.1253318 0.013953,0.060925 0.03837,0.099221 0.025289,0.036556 0.062788,0.036556 0.053195,0 0.083717,-0.059184 0.031393,-0.060925 0.047963,-0.1514426 z M 1.358923,3.6838787 q -8.706e-4,-0.019148 -0.00174,-0.045259 0,-0.026111 0,-0.066148 0,-0.1061836 -0.013081,-0.1601464 -0.013081,-0.055703 -0.045347,-0.055703 -0.027905,0 -0.039242,0.053962 -0.010465,0.052221 -0.014825,0.161887 l -0.00174,0.1114054 z"
          id="path23866" />
      <path
          style="color:#000000;-inkscape-font-specification:Elephant;fill:#000000;stroke-width:0.154007;-inkscape-stroke:none"
          d="M 1.8097722,4.1712804 H 1.5272277 V 4.143429 l 0.020929,-0.00174 q 0.025289,-0.00523 0.030522,-0.02437 0.00523,-0.019148 0.00523,-0.083554 L 1.5847793,3.953692 V 3.0937746 l -8.706e-4,-0.07137 q -0.00174,-0.041778 -0.00523,-0.062667 -0.00349,-0.020889 -0.031394,-0.026111 l -0.029649,-0.00348 v -0.027856 h 0.2345817 v 1.051395 l 8.706e-4,0.080073 q 0,0.062665 0.00523,0.083554 0.00523,0.019148 0.030521,0.02437 l 0.02093,0.00174 z"
          id="path23868" />
      <path
          style="color:#000000;-inkscape-font-specification:Elephant;fill:#ff0000;stroke-width:0.154007;-inkscape-stroke:none"
          d="m 1.8769199,3.0554788 q 0,-0.067889 0.024417,-0.1148881 0.025289,-0.04874 0.060172,-0.04874 0.035754,0 0.060172,0.047 0.025289,0.045259 0.025289,0.1166287 0,0.069629 -0.025289,0.1183693 -0.024417,0.047 -0.060172,0.047 -0.034882,0 -0.060172,-0.047 -0.024417,-0.04874 -0.024417,-0.1183699 z"
          id="path24404" />
      <path
          style="color:#000000;-inkscape-font-specification:Elephant;fill:#000000;stroke-width:0.154007;-inkscape-stroke:none"
          d="M 2.1036531,4.1712804 H 1.8211087 V 4.143429 l 0.02093,-0.00174 q 0.025289,-0.00523 0.030521,-0.02437 0.00523,-0.019148 0.00523,-0.083554 L 1.8786603,3.953692 V 3.5376583 l -8.706e-4,-0.07137 q -0.00174,-0.041778 -0.00523,-0.062665 -0.00349,-0.020889 -0.031393,-0.026111 l -0.023545,-0.00348 V 3.3461857 H 2.046098 v 0.6075114 l 8.706e-4,0.080073 q 0,0.062665 0.00523,0.083554 0.00523,0.019148 0.030521,0.02437 l 0.020929,0.00174 z"
          id="path23870" />
      <path
          style="color:#000000;-inkscape-font-specification:Elephant;fill:#0000ff;stroke-width:0.154007;-inkscape-stroke:none"
          d="m 2.8919856,2.9301469 q -0.011337,0.00174 -0.025289,0.00348 -0.013081,0.00174 -0.037498,0.010441 -0.024417,0.00697 -0.037498,0.040037 -0.012209,0.031333 -0.014825,0.087037 l -0.00174,0.083554 V 4.1712804 H 2.6687406 L 2.2545164,3.1129225 h -0.00349 v 0.8129164 l 0.00174,0.083554 q 0.00262,0.057443 0.013953,0.085296 0.012209,0.027851 0.035754,0.036554 0.024417,0.00697 0.040986,0.0087 0.017441,0.00174 0.023545,0.00348 v 0.027858 H 2.1158604 V 4.143429 q 0.011337,-0.00174 0.025289,-0.00348 0.013953,-0.00174 0.048835,-0.012179 0.035754,-0.012179 0.040986,-0.1183693 l 0.00174,-0.083554 V 3.1338111 l -0.00174,-0.080073 Q 2.2196334,3.0171821 2.2039374,2.9858491 2.1882404,2.9545161 2.1690554,2.9423311 2.1507424,2.9301521 2.1333014,2.9301521 H 2.1071404 V 2.9022951 H 2.4402637 L 2.75333,3.7030264 H 2.75682 V 3.147737 L 2.75508,3.064183 Q 2.75246,3.00848 2.740255,2.980629 2.728918,2.951037 2.705373,2.944073 2.681828,2.935373 2.667003,2.933632 2.65305,2.931892 2.640842,2.930152 V 2.902291 h 0.2511506 z"
          id="path23872" />
      <path
          style="color:#000000;-inkscape-font-specification:Elephant;fill:#000000;stroke-width:0.154007;-inkscape-stroke:none"
          d="m 2.9983756,4.3122788 q -0.024418,0.00697 -0.035754,0.027851 -0.010465,0.02263 -0.010465,0.064407 0,0.069629 0.050579,0.104443 0.051451,0.036554 0.1177269,0.036554 0.082845,0 0.1334237,-0.036554 0.050579,-0.036555 0.050579,-0.1166287 0,-0.04874 -0.022673,-0.064407 Q 3.2591182,4.3122773 3.21726,4.3122773 Z M 3.1492403,3.6246943 3.1466242,3.4976218 q 0,-0.064407 -0.00872,-0.1027023 -0.00872,-0.038295 -0.030522,-0.038295 -0.020057,0 -0.029649,0.040037 -0.00872,0.038295 -0.00872,0.1009617 l -0.00262,0.1270724 0.00262,0.1270724 q 0,0.060925 0.00959,0.1009617 0.00959,0.038297 0.029649,0.038297 0.020058,0 0.028777,-0.038297 0.00959,-0.038295 0.00959,-0.1009617 z m 0.088077,-0.2001829 q 0.00959,-0.043518 0.029649,-0.069629 0.020058,-0.026111 0.048835,-0.026111 0.030521,0 0.048835,0.031333 0.018313,0.031333 0.018313,0.085296 0,0.041778 -0.013953,0.069629 -0.013953,0.027851 -0.036626,0.027851 -0.020929,0 -0.035754,-0.022629 -0.013953,-0.02437 -0.013953,-0.069629 0,-0.02437 0.00785,-0.045259 0.00872,-0.022629 0.00872,-0.033073 0,-0.00697 -0.00698,-0.00697 -0.011337,0 -0.02529,0.019148 -0.013953,0.017408 -0.022673,0.053962 0.015697,0.033073 0.024417,0.083554 0.00872,0.04874 0.00872,0.1027023 0,0.1322942 -0.050579,0.2141085 -0.050579,0.080073 -0.1185989,0.080073 -0.041858,0 -0.081973,-0.033073 -0.018313,-0.00348 -0.034882,0.012179 -0.016569,0.015667 -0.016569,0.050481 0,0.02437 0.013081,0.036554 0.012209,0.013931 0.027905,0.013931 H 3.201561 q 0.071508,0 0.1142387,0.081813 0.04273,0.081813 0.04273,0.2054051 0,0.1514425 -0.07238,0.2228121 -0.071508,0.07137 -0.1683058,0.07137 -0.079357,0 -0.1395281,-0.038296 -0.0593,-0.038297 -0.0593,-0.1340349 0,-0.045259 0.017441,-0.07311 0.018313,-0.026111 0.045347,-0.036554 -0.034882,-0.040037 -0.05494,-0.090518 -0.019185,-0.04874 -0.019185,-0.1201099 0,-0.087035 0.028777,-0.1479613 0.028777,-0.060925 0.068892,-0.07311 -0.032266,-0.041778 -0.050579,-0.1009616 -0.017441,-0.060925 -0.017441,-0.1392582 0,-0.1340349 0.049707,-0.2158492 0.050579,-0.081813 0.121215,-0.081813 0.079357,0 0.1290636,0.09574 z"
          id="path23874" />
      <path
          style="color:#000000;-inkscape-font-specification:Elephant;fill:#000000;stroke-width:0.154007;-inkscape-stroke:none"
          d="M 3.7204327,3.5655098 3.7021193,3.4645481 q -0.00698,-0.034814 -0.013081,-0.057443 -0.0061,-0.02437 -0.019185,-0.029592 l -0.019185,-0.00348 v -0.027851 h 0.2668475 v 0.027851 h -0.013081 q -0.00698,0 -0.019185,0.00523 -0.012209,0.00523 -0.012209,0.041778 0,0.012179 8.706e-4,0.02437 8.706e-4,0.012179 0.00872,0.066148 0.00872,0.052221 0.027033,0.1566648 0.018313,0.104443 0.029649,0.1653685 l 0.060173,-0.313336 q 0.011337,-0.067889 0.011337,-0.09748 0,-0.026111 -0.0061,-0.033073 -0.0061,-0.00697 -0.016569,-0.010441 -0.010465,-0.00348 -0.018313,-0.00348 -0.00698,-0.00174 -0.013953,-0.00174 v -0.027851 h 0.1456325 v 0.027851 l -0.031393,0.00697 q -0.026161,0.0087 -0.048835,0.1201099 L 3.8922267,4.1782433 H 3.8294391 L 3.7282812,3.6072871 3.6157866,4.1782433 H 3.5538711 Q 3.5407903,4.1033923 3.5268375,4.02506 3.5128847,3.9467275 3.4762585,3.7430632 3.4405045,3.5376583 3.4282957,3.476733 3.4169591,3.4158079 3.4117267,3.4001413 3.4064961,3.3844743 3.39603,3.3809931 3.385565,3.3757631 3.375101,3.3757631 3.365511,3.3740231 3.356788,3.3740231 v -0.027851 h 0.2746961 v 0.027851 h -0.0061 q -0.00349,0 -0.015697,0.00523 -0.011337,0.00523 -0.011337,0.041778 0,0.012179 8.706e-4,0.02437 8.706e-4,0.012179 0.00785,0.055703 0.00698,0.041778 0.023545,0.1392582 0.016569,0.097481 0.034882,0.1967014 z"
          id="path23876" />
      <path
          style="color:#000000;-inkscape-font-specification:Elephant;fill:#000000;stroke-width:0.154007;-inkscape-stroke:none"
          d="m 4.5279509,3.9101723 q -0.024417,0.1305537 -0.078485,0.2054051 -0.054067,0.07311 -0.1273194,0.07311 -0.102902,0 -0.1691778,-0.113146 -0.066276,-0.1148881 -0.066276,-0.3168111 0,-0.1879978 0.06802,-0.3081074 0.068892,-0.1218506 0.1648175,-0.1218506 0.1002859,0 0.153481,0.113146 0.053195,0.1131475 0.053195,0.2767745 h -0.267719 q 0,0.062667 0.00436,0.1288131 0.00523,0.064407 0.018313,0.1253318 0.013953,0.060925 0.03837,0.099221 0.025289,0.036556 0.062788,0.036556 0.053195,0 0.083717,-0.059184 0.031393,-0.060925 0.047963,-0.1514426 z M 4.3744699,3.6838787 q -8.706e-4,-0.019148 -0.00174,-0.045259 0,-0.026111 0,-0.066148 0,-0.1061836 -0.013081,-0.1601464 -0.013081,-0.055703 -0.045347,-0.055703 -0.027905,0 -0.039242,0.053962 -0.010465,0.052221 -0.014825,0.161887 l -0.00174,0.1114054 z"
          id="path23878" />
      <path
          style="color:#000000;-inkscape-font-specification:Elephant;fill:#000000;stroke-width:0.154007;-inkscape-stroke:none"
          d="M 4.8253191,4.1712804 H 4.5427747 V 4.143429 l 0.02093,-0.00174 q 0.025289,-0.00523 0.030521,-0.02437 0.00523,-0.019148 0.00523,-0.083554 L 4.6003263,3.953692 V 3.0937746 l -8.706e-4,-0.07137 q -0.00174,-0.041778 -0.00523,-0.062667 -0.00349,-0.020889 -0.031393,-0.026111 l -0.029649,-0.00348 v -0.027856 h 0.2345816 v 1.051395 l 8.706e-4,0.080073 q 0,0.062665 0.00523,0.083554 0.00523,0.019148 0.030521,0.02437 l 0.020929,0.00174 z"
          id="path23880" />
      <path
          style="color:#000000;-inkscape-font-specification:Elephant;fill:#0000ff;stroke-width:0.154007;-inkscape-stroke:none"
          d="m 5.2840177,3.9101723 q -0.024417,0.1305537 -0.078485,0.2054051 -0.054067,0.07311 -0.1273194,0.07311 -0.1029019,0 -0.1691779,-0.113146 -0.066276,-0.1148881 -0.066276,-0.3168111 0,-0.1879978 0.06802,-0.3081074 0.068892,-0.1218506 0.1648176,-0.1218506 0.1002859,0 0.153481,0.113146 0.053195,0.1131475 0.053195,0.2767745 H 5.014554 q 0,0.062667 0.00436,0.1288131 0.00523,0.064407 0.018313,0.1253318 0.013953,0.060925 0.03837,0.099221 0.02529,0.036556 0.062788,0.036556 0.053195,0 0.083717,-0.059184 0.031394,-0.060925 0.047963,-0.1514426 z M 5.1305368,3.6838787 q -8.706e-4,-0.019148 -0.00174,-0.045259 0,-0.026111 0,-0.066148 0,-0.1061836 -0.013081,-0.1601464 -0.013081,-0.055703 -0.045347,-0.055703 -0.027906,0 -0.039242,0.053962 -0.010465,0.052221 -0.014825,0.161887 l -0.00174,0.1114054 z"
          id="path23882" />
      <g id="text4994"
          style="font-size:2.11667px;font-family:'Niagara Engraved';-inkscape-font-specification:'Niagara Engraved';text-align:center;text-anchor:middle;stroke-width:0.264583" />
    </g>
  </g>
</svg>
